<svg xmlns="http://www.w3.org/2000/svg" viewBox="0 0 440 440" width="88" height="88" fill="#33a1ff" shape-rendering="crispEdges" role="img" aria-label="Omi is tiling windows"><rect x="70" y="70" width="300" height="20"/><rect x="70" y="90" width="20" height="260"/><rect x="350" y="90" width="20" height="260"/><rect x="70" y="350" width="160" height="20"/><rect x="250" y="350" width="120" height="20"/><rect x="210" y="90" width="20" height="20"/><rect x="110" y="110" width="120" height="20"/><rect x="290" y="110" width="40" height="20"/><rect x="110" y="130" width="20" height="180"/><rect x="310" y="130" width="20" height="180"/><rect x="110" y="310" width="220" height="20"/><rect x="90" y="210" width="20" height="20"/><rect x="210" y="330" width="20" height="20"/><rect x="142" y="142" width="70" height="6"/><rect x="142" y="292" width="70" height="6"/><rect x="142" y="148" width="6" height="144"/><rect x="206" y="148" width="6" height="144"/><rect x="222" y="225" width="76" height="6" opacity="0.72"/><rect x="222" y="292" width="76" height="6" opacity="0.72"/><rect x="222" y="231" width="6" height="61" opacity="0.72"/><rect x="292" y="231" width="6" height="61" opacity="0.72"/></svg>
